<svg xmlns="http://www.w3.org/2000/svg" width="795" height="200" fill="none" viewBox="0 0 795 200">
    <path fill="#0f172a"
        d="M199 140V70h41.1v12.6H213V99h26.6v12.4H213V140zm74.309 1.3c-16.1 0-27.7-12.2-27.7-27.2s11.6-27.3 27.7-27.3 27.7 12.3 27.7 27.3-11.6 27.2-27.7 27.2m-14.2-27.2c0 8.1 5.6 14.9 14.2 14.9s14.2-6.8 14.2-14.9-5.6-15-14.2-15-14.2 6.9-14.2 15m47.875 25.9V88h13.1v9.9c1.8-7.5 7.1-11.6 16.1-11.1v12.7h-1.9c-7.8 0-13.8 5.2-13.8 13.9V140zm37.692 0V88h13.3v7.6c2.7-5.8 7.9-8.8 15.9-8.8 7.3 0 13.5 3.5 16.9 9.8 3.5-6.3 8.5-9.8 17.6-9.8 11.2 0 19.8 8.3 19.8 21.4V140h-13.5v-28.5c0-9-4.3-12.9-10.4-12.9-6.3 0-10.6 2.9-10.6 12.9V140h-13.5v-28.5c0-9-4.5-12.9-11.2-12.9-5.7 0-10.8 3.9-10.8 12.9V140zm124.915 1.3c-9.3 0-14-3.9-16.8-9.8v8.5h-13.1V67h13.5v29c2.8-5.5 7.5-9.1 16.4-9.1 14.3 0 25.7 12.3 25.7 27.3s-11.4 27.1-25.7 27.1m-16.8-27.1c0 8.1 5.7 14.9 14.6 14.9 8.6 0 14.4-7.1 14.4-15 0-8.1-5.8-15-14.4-15-8.9 0-14.6 7-14.6 15.1m50.522 25.8V88h13.1v9.9c1.8-7.5 7.1-11.6 16.1-11.1v12.7h-1.9c-7.8 0-13.8 5.2-13.8 13.9V140zm37.691 0V88h13.5v52zm-1.4-64.3c0-4.3 3.5-7.9 8.1-7.9 4.7 0 8.1 3.6 8.1 7.9 0 4.5-3.4 8-8.1 8-4.6 0-8.1-3.6-8.1-8m47.684 65.6c-14.9 0-26.8-12.2-26.8-27.3s11.6-27.2 27.5-27.3c9.5-.1 17.2 3.6 21.6 9.7l-10.4 8.5c-2.4-3.6-6.4-5.9-11-5.9-8.6 0-14.2 6.9-14.2 15s5.9 15 14.5 15c5.2 0 8.6-2.6 11.3-6.2l9.8 8.5c-4.9 6.3-12.1 10-22.3 10m62.042-1.3-20.9-24.7V140h-13.5V67h13.5v42l19.5-21h19.2l-24.5 24.2 24.6 27.8zm40.232 1.3c-8.8 0-15.9-3-21.6-9.1l9.1-8.3c3.8 4.3 7.8 6.4 12.2 6.4 4.6 0 7.2-2.3 7.2-5.4 0-2.7-1.3-4.2-9.5-6.1-13.9-3.3-16-9.6-16-16.2 0-9.1 7.2-15.9 19.4-15.9 8.4 0 14 2.1 19.3 9l-9.8 7.5c-2.5-4-5.7-5.6-9.2-5.6-3.7 0-6.5 1.4-6.5 4.6 0 1.8.8 3.4 7 5 15.1 3.9 18.6 9.5 18.6 17.3 0 9.6-8.7 16.8-20.2 16.8" />
    <path fill="url(#a)" d="M81 115.425h24.4v12.2c0 6.738-5.462 12.2-12.2 12.2s-12.2-5.462-12.2-12.2z" />
    <path fill="url(#b)" d="M81 87.212h48.8c6.738 0 12.2 5.462 12.2 12.2s-5.462 12.2-12.2 12.2H81z" />
    <path fill="url(#c)"
        d="M81 79c0-11.046 8.954-20 20-20h28.8c6.738 0 12.2 5.462 12.2 12.2s-5.462 12.2-12.2 12.2H81z" />
    <mask id="g" width="61" height="81" x="81" y="59" maskUnits="userSpaceOnUse" style="mask-type:alpha">
        <path fill="url(#d)" d="M81 115.425h24.4v12.2c0 6.738-5.462 12.2-12.2 12.2s-12.2-5.462-12.2-12.2z" />
        <path fill="url(#e)" d="M81 87.213h48.8c6.738 0 12.2 5.462 12.2 12.2s-5.462 12.2-12.2 12.2H81z" />
        <path fill="url(#f)"
            d="M81 79c0-11.046 8.954-20 20-20h28.8c6.738 0 12.2 5.462 12.2 12.2s-5.462 12.2-12.2 12.2H81z" />
    </mask>
    <g mask="url(#g)">
        <g filter="url(#h)">
            <mask id="i" width="61" height="81" x="81" y="59" maskUnits="userSpaceOnUse" style="mask-type:alpha">
                <path fill="#000" fill-opacity=".1"
                    d="M81 115.425h24.4v12.2c0 6.738-5.462 12.2-12.2 12.2s-12.2-5.462-12.2-12.2zM81 79c0-11.046 8.954-20 20-20h28.8c6.738 0 12.2 5.462 12.2 12.2s-5.462 12.2-12.2 12.2H81zM81 87.213h48.8c6.738 0 12.2 5.462 12.2 12.2s-5.462 12.2-12.2 12.2H81z" />
            </mask>
            <g mask="url(#i)">
                <path fill="#000" fill-opacity=".1"
                    d="M82.28 37.984c9.558-9.329 33.795 0 33.795 0zc-2.347 2.291-3.81 5.708-3.81 10.664 0 25.139 27.231 34.28 27.231 51.801 0 17.151-26.095 27.732-27.195 51.038h37.569s-37.604 25.9-37.604 1.523q0-.77.035-1.523H61.938l3.241-113.503z" />
            </g>
        </g>
        <g filter="url(#j)">
            <circle cx="73.375" cy="129.15" r="22.875" fill="#00c4b8" />
        </g>
        <g filter="url(#k)">
            <circle cx="73.375" cy="71.2" r="22.875" fill="#00c4b8" />
        </g>
    </g>
    <path stroke="url(#l)" stroke-linecap="round" stroke-width="2" d="M169 60v89" />
    <defs>
        <linearGradient id="a" x1="105.506" x2="80.998" y1="127.183" y2="127.282" gradientUnits="userSpaceOnUse">
            <stop offset="1" stop-color="#00c4b8" />
        </linearGradient>
        <linearGradient id="b" x1="142.265" x2="81" y1="98.97" y2="99.589" gradientUnits="userSpaceOnUse">
            <stop stop-color="#00ddd0" />
            <stop offset="1" stop-color="#01e0c6" />
        </linearGradient>
        <linearGradient id="c" x1="142.265" x2="81" y1="70.758" y2="71.377" gradientUnits="userSpaceOnUse">
            <stop stop-color="#00ddd0" />
            <stop offset="1" stop-color="#01e0c6" />
        </linearGradient>
        <linearGradient id="d" x1="105.506" x2="80.998" y1="127.183" y2="127.282" gradientUnits="userSpaceOnUse">
            <stop stop-color="#00ffe1" />
            <stop offset="1" stop-color="#01e0c6" />
        </linearGradient>
        <linearGradient id="e" x1="142.265" x2="81" y1="98.971" y2="99.59" gradientUnits="userSpaceOnUse">
            <stop stop-color="#00ffe1" />
            <stop offset="1" stop-color="#01e0c6" />
        </linearGradient>
        <linearGradient id="f" x1="142.265" x2="81" y1="70.758" y2="71.377" gradientUnits="userSpaceOnUse">
            <stop stop-color="#00ffe1" />
            <stop offset="1" stop-color="#01e0c6" />
        </linearGradient>
        <linearGradient id="l" x1="168" x2="167" y1="104.5" y2="104.5" gradientUnits="userSpaceOnUse">
            <stop stop-color="#ebebeb" stop-opacity=".2" />
            <stop offset=".25" stop-color="#d8d8d8" />
            <stop offset=".5" stop-color="#cdcdcd" />
            <stop offset=".732" stop-color="#d8d8d8" />
            <stop offset="1" stop-color="#ebebeb" stop-opacity=".2" />
        </linearGradient>
        <filter id="h" width="59.075" height="104.825" x="79" y="47" color-interpolation-filters="sRGB"
            filterUnits="userSpaceOnUse">
            <feFlood flood-opacity="0" result="BackgroundImageFix" />
            <feColorMatrix in="SourceAlpha" result="hardAlpha" values="0 0 0 0 0 0 0 0 0 0 0 0 0 0 0 0 0 0 127 0" />
            <feOffset dx="10" />
            <feGaussianBlur stdDeviation="6" />
            <feComposite in2="hardAlpha" operator="out" />
            <feColorMatrix values="0 0 0 0 0 0 0 0 0 0 0 0 0 0 0 0 0 0 0.25 0" />
            <feBlend in2="BackgroundImageFix" result="effect1_dropShadow_301_2" />
            <feBlend in="SourceGraphic" in2="effect1_dropShadow_301_2" result="shape" />
        </filter>
        <filter id="j" width="85.75" height="85.75" x="30.5" y="86.275" color-interpolation-filters="sRGB"
            filterUnits="userSpaceOnUse">
            <feFlood flood-opacity="0" result="BackgroundImageFix" />
            <feBlend in="SourceGraphic" in2="BackgroundImageFix" result="shape" />
            <feGaussianBlur result="effect1_foregroundBlur_301_2" stdDeviation="10" />
        </filter>
        <filter id="k" width="85.75" height="85.75" x="30.5" y="28.325" color-interpolation-filters="sRGB"
            filterUnits="userSpaceOnUse">
            <feFlood flood-opacity="0" result="BackgroundImageFix" />
            <feBlend in="SourceGraphic" in2="BackgroundImageFix" result="shape" />
            <feGaussianBlur result="effect1_foregroundBlur_301_2" stdDeviation="10" />
        </filter>
    </defs>
</svg>
